<svg width="97" height="50" viewBox="0 0 97 50" fill="none" xmlns="http://www.w3.org/2000/svg">
<mask id="mask0_314_1096" style="mask-type:alpha" maskUnits="userSpaceOnUse" x="0" y="0" width="97" height="50">
<path d="M25.3142 41.3388C25.1117 42.777 25.9292 44.1627 27.2791 44.702C45.0086 53.1211 63.7955 51.4284 77.5276 40.178H77.5351C88.1098 30.9873 95.0096 18.291 96.9595 4.42641C97.117 3.47513 96.8095 2.5089 96.1271 1.82728C95.4446 1.16064 94.4921 0.846135 93.5396 0.980961C83.8124 2.20938 73.9727 2.16449 64.268 0.846186C49.726 -0.591958 37.1338 -1.82042 26.0491 11.6622C24.3392 13.782 22.8018 16.0215 21.4443 18.3735C18.5794 23.1374 16.457 28.2982 15.1445 33.6912C10.7271 35.9308 6.13725 38.5 1.39739 41.5111C0.722407 41.9305 0.24243 42.6122 0.0699348 43.3987C-0.10256 44.1777 0.0474263 44.9941 0.482413 45.6608C0.624909 45.9004 0.804897 46.1102 1.01489 46.29C2.01986 47.1963 3.51234 47.3011 4.6448 46.5671C17.9869 38.1105 38.8888 27.4219 51.5259 26.6729C42.3162 30.6502 33.5339 35.5638 25.3367 41.3388H25.3142Z" fill="#798368"/>
</mask>
<g mask="url(#mask0_314_1096)">
<rect x="-15" y="-9" width="128" height="70" fill="#83A254"/>
</g>
</svg>
