<svg width="80" height="80" viewBox="0 0 80 80" fill="none" xmlns="http://www.w3.org/2000/svg">
<rect width="80" height="80" rx="10" fill="#F17575"/>
<rect x="19" y="13.3021" width="44" height="53" rx="6" stroke="black" stroke-width="2"/>
<rect x="44" y="10.3021" width="25" height="25" fill="#F17575"/>
<path d="M62.3177 31.6818C64.3286 33.6554 62.756 37.0614 59.9497 36.8107L46.7503 35.6315C45.2032 35.4933 44.0173 34.1973 44.0171 32.6441L44.0163 13.7184L62.3177 31.6818Z" stroke="black" stroke-width="2"/>
<path d="M32.5979 49.9862C37.3938 46.2108 49.3102 38.459 50.8603 40.004C52.798 41.9353 52.0386 43.6845 50.2712 44.7015C48.5038 45.7186 30.6952 39.7521 32.008 36.4809C33.1414 33.6568 32.1615 33 36.1327 33C40.2559 33 37.311 45.6802 36.1327 52.9222C35.0315 54.1528 32.5471 56.1273 31.4196 54.1808C30.2921 52.2344 31.7016 50.5734 32.5473 49.9862" stroke="black"/>
<rect x="63.2812" y="36.9906" width="1.32336" height="5.15029" transform="rotate(97.6827 63.2812 36.9906)" fill="black"/>
</svg>
