<svg width="68" height="36" viewBox="0 0 68 36" fill="none" xmlns="http://www.w3.org/2000/svg">
<g filter="url(#filter0_i_1_62)">
<path d="M64 28C66.2091 28 68 29.7909 68 32C68 34.2091 66.2091 36 64 36H4C1.79086 36 0 34.2091 0 32C0 29.7909 1.79086 28 4 28H64ZM64 14C66.2091 14 68 15.7909 68 18C68 20.2091 66.2091 22 64 22H4C1.79086 22 0 20.2091 0 18C0 15.7909 1.79086 14 4 14H64ZM64 0C66.2091 0 68 1.79086 68 4C68 6.20914 66.2091 8 64 8H4C1.79086 8 0 6.20914 0 4C0 1.79086 1.79086 8.05321e-09 4 0H64Z" fill="black"/>
</g>
<defs>
<filter id="filter0_i_1_62" x="0" y="0" width="68" height="40" filterUnits="userSpaceOnUse" color-interpolation-filters="sRGB">
<feFlood flood-opacity="0" result="BackgroundImageFix"/>
<feBlend mode="normal" in="SourceGraphic" in2="BackgroundImageFix" result="shape"/>
<feColorMatrix in="SourceAlpha" type="matrix" values="0 0 0 0 0 0 0 0 0 0 0 0 0 0 0 0 0 0 127 0" result="hardAlpha"/>
<feOffset dy="4"/>
<feGaussianBlur stdDeviation="2"/>
<feComposite in2="hardAlpha" operator="arithmetic" k2="-1" k3="1"/>
<feColorMatrix type="matrix" values="0 0 0 0 0 0 0 0 0 0 0 0 0 0 0 0 0 0 0.25 0"/>
<feBlend mode="normal" in2="shape" result="effect1_innerShadow_1_62"/>
</filter>
</defs>
</svg>
